<?xml version="1.0" standalone="no"?>
<!DOCTYPE svg PUBLIC "-//W3C//DTD SVG 20010904//EN"
 "http://www.w3.org/TR/2001/REC-SVG-20010904/DTD/svg10.dtd">
<svg version="1.0" xmlns="http://www.w3.org/2000/svg"
 width="226.000000pt" height="226.000000pt" viewBox="0 0 226.000000 226.000000"
 preserveAspectRatio="xMidYMid meet">
<metadata>
Created by potrace 1.11, written by Peter Selinger 2001-2013
</metadata>
<g transform="translate(0.000000,226.000000) scale(0.100000,-0.100000)"
fill="#000000" stroke="none">
<path d="M943 2155 c-427 -77 -763 -416 -838 -844 -95 -538 239 -1052 773
-1192 100 -27 292 -36 403 -20 444 65 797 408 874 850 100 567 -278 1107 -844
1206 -101 18 -270 18 -368 0z m253 -59 c21 -18 28 -32 28 -60 0 -52 -32 -81
-89 -81 -52 0 -81 23 -91 72 -5 27 -1 37 24 63 39 38 88 41 128 6z m160 -4 c7
-4 18 -29 26 -56 l14 -48 13 41 c9 30 17 41 32 41 11 0 22 -6 24 -12 5 -12
-29 -145 -38 -155 -2 -2 -15 1 -29 6 -19 7 -28 22 -38 58 l-12 48 -12 -40
c-10 -34 -15 -40 -36 -37 -14 2 -26 5 -27 6 -2 1 7 37 18 79 21 77 34 90 65
69z m-389 -28 c13 -21 14 -30 5 -45 -11 -17 -9 -23 14 -43 l27 -23 -31 -11
c-29 -10 -33 -8 -53 16 l-21 27 4 -30 c3 -26 0 -30 -23 -33 -25 -3 -27 1 -43
62 -25 101 -25 101 66 105 30 1 41 -4 55 -25z m388 -198 c131 -42 219 -97 321
-200 76 -77 99 -107 138 -186 68 -139 81 -199 80 -360 0 -119 -4 -145 -27
-215 -70 -210 -204 -367 -392 -460 -130 -65 -196 -80 -345 -80 -150 0 -215 15
-350 82 -81 40 -109 60 -190 142 -81 81 -103 111 -143 191 -67 134 -82 199
-82 350 0 150 15 215 82 350 40 81 60 109 142 190 122 121 222 177 391 216 91
22 279 12 375 -20z m-840 -1397 c-21 -41 -39 -76 -41 -78 -9 -9 -44 34 -39 47
7 19 -12 42 -35 42 -9 0 -25 9 -35 20 -17 19 -17 20 31 41 27 12 63 27 79 35
27 12 32 11 53 -10 l24 -23 -37 -74z m1269 106 c3 -8 -4 -21 -16 -29 -26 -19
-18 -32 10 -17 61 33 108 -10 76 -70 -19 -38 -61 -59 -75 -38 -13 21 -11 27
11 34 11 3 20 13 20 21 0 12 -4 12 -30 -1 -41 -21 -70 -6 -70 37 0 51 59 101
74 63z m-1066 -192 c3 -25 -2 -35 -24 -49 -25 -17 -28 -17 -57 -1 -30 18 -39
15 -50 -17 -4 -11 -47 11 -47 24 0 6 19 39 43 74 l42 64 45 -32 c34 -25 46
-40 48 -63z m936 80 c5 -11 0 -23 -14 -33 -25 -19 -16 -34 11 -17 14 9 21 9
31 -1 9 -9 7 -16 -7 -32 -24 -26 -11 -39 16 -15 17 17 22 17 29 5 15 -23 13
-27 -34 -59 l-44 -30 -46 69 -46 69 43 30 c50 36 53 36 61 14z m-134 -153 c0
-85 -2 -91 -22 -100 -20 -8 -30 -1 -80 53 -32 34 -58 65 -58 68 0 4 12 10 26
13 19 5 30 2 39 -11 45 -61 47 -62 41 -7 -6 48 -5 51 21 61 16 6 29 11 31 12
1 1 2 -40 2 -89z m-638 23 c21 -19 23 -52 5 -78 -11 -15 -22 -17 -55 -12 -35
6 -42 4 -47 -13 -7 -21 -22 -25 -44 -11 -11 7 -9 22 14 84 l27 75 41 -14 c23
-8 49 -22 59 -31z m191 -40 c23 -21 22 -60 -2 -75 -18 -11 -18 -14 -5 -39 19
-37 18 -39 -11 -39 -20 0 -29 8 -40 33 l-13 32 -7 -28 c-6 -21 -13 -27 -29
-25 -19 3 -21 8 -18 73 3 98 4 99 60 90 26 -4 55 -14 65 -22z m235 -9 c51 -57
10 -134 -72 -134 -36 0 -48 5 -65 26 -71 91 60 194 137 108z"/>
<path d="M1110 2056 c-27 -33 18 -72 48 -42 13 13 14 20 6 34 -15 23 -38 26
-54 8z"/>
<path d="M890 2035 c0 -8 7 -15 15 -15 8 0 15 7 15 15 0 8 -7 15 -15 15 -8 0
-15 -7 -15 -15z"/>
<path d="M1042 1830 c-68 -7 -93 -15 -135 -41 -54 -34 -147 -117 -147 -132 0
-5 -13 -27 -28 -50 -16 -23 -34 -56 -41 -73 -13 -34 -15 -172 -3 -422 7 -153
8 -164 29 -180 22 -17 22 -19 12 -109 -13 -112 -8 -148 30 -193 28 -35 202
-165 257 -193 42 -21 151 -28 189 -13 17 7 56 41 86 75 31 33 61 61 67 61 15
0 92 99 114 147 23 52 54 193 63 288 6 60 12 75 40 105 37 40 56 105 50 165
-3 22 -7 77 -9 123 -4 81 -5 83 -38 106 -33 22 -34 27 -22 79 8 34 -19 126
-46 155 -11 11 -64 34 -122 51 -57 18 -114 36 -127 42 -35 15 -126 18 -219 9z
m125 -656 c-2 -2 -12 -1 -22 3 -18 6 -18 7 1 13 17 7 33 -5 21 -16z m-17 -108
c0 -15 -24 -29 -33 -19 -7 6 14 32 26 33 4 0 7 -6 7 -14z"/>
<path d="M465 516 c-11 -7 -15 -18 -10 -25 5 -9 11 -7 22 9 19 26 13 34 -12
16z"/>
<path d="M637 395 c-8 -18 11 -31 25 -17 11 11 3 32 -12 32 -4 0 -10 -7 -13
-15z"/>
<path d="M814 309 c-8 -14 11 -33 25 -25 6 4 11 11 11 16 0 13 -29 20 -36 9z"/>
<path d="M1003 255 c0 -8 6 -15 14 -15 7 0 13 7 13 15 0 8 -6 15 -13 15 -8 0
-14 -7 -14 -15z"/>
<path d="M1214 246 c-10 -26 4 -48 28 -44 17 2 23 10 23 28 0 18 -6 26 -23 28
-13 2 -25 -3 -28 -12z"/>
</g>
</svg>
